<?xml version="1.0" encoding="UTF-8"?>
<svg version="1.1" xmlns="http://www.w3.org/2000/svg" width="1024" height="1024">
<path d="M0 0 C337.92 0 675.84 0 1024 0 C1024 337.92 1024 675.84 1024 1024 C686.08 1024 348.16 1024 0 1024 C0 686.08 0 348.16 0 0 Z " fill="#000000" transform="translate(0,0)"/>
<path d="M0 0 C12.1122195 8.82656124 21.20124308 19.89019738 24.43359375 34.7734375 C24.75852207 38.66173612 24.72257912 42.50035825 24.62109375 46.3984375 C24.60755859 47.40261719 24.59402344 48.40679687 24.58007812 49.44140625 C24.54515527 51.88600614 24.49612123 54.32941484 24.43359375 56.7734375 C25.04064148 56.76899628 25.64768921 56.76455505 26.27313232 56.75997925 C32.6993164 56.71508335 39.12545464 56.68530232 45.55175781 56.66357422 C47.93719294 56.65363223 50.32261627 56.64007394 52.70800781 56.62255859 C72.50233395 56.48105164 91.5677598 57.24524309 110.90014648 61.6953125 C112.89488577 62.15390734 114.89311243 62.59376836 116.89257812 63.03125 C129.50991436 65.83325104 141.65378904 69.43566797 153.43359375 74.7734375 C154.65248291 75.32064453 154.65248291 75.32064453 155.89599609 75.87890625 C178.66421248 86.18045786 198.84006563 98.79518341 217.22265625 115.75 C219.16691312 117.5293729 221.15752077 119.21431776 223.18359375 120.8984375 C248.83110118 143.39171518 269.39075859 175.63978205 280.43359375 207.7734375 C280.80226563 208.62679687 281.1709375 209.48015625 281.55078125 210.359375 C282.43359375 212.7734375 282.43359375 212.7734375 282.43359375 216.7734375 C283.60921875 216.7734375 284.78484375 216.7734375 285.99609375 216.7734375 C299.04364258 218.23459833 312.38788644 228.78255415 320.62109375 238.3984375 C332.74969807 254.3571274 335.5437329 270.95448535 335.671875 290.4375 C335.67994675 291.62838226 335.68801849 292.81926453 335.69633484 294.04623413 C335.71009723 296.55571064 335.72085404 299.06520524 335.72875977 301.57470703 C335.74026732 304.11317525 335.76069941 306.6516195 335.7902832 309.18994141 C336.06128558 332.50220141 334.47872676 352.46144243 318.43359375 370.7734375 C317.90121094 371.38832031 317.36882813 372.00320313 316.8203125 372.63671875 C312.06483445 377.75538367 306.44149344 381.27461731 300.43359375 384.7734375 C299.7065625 385.20011719 298.97953125 385.62679688 298.23046875 386.06640625 C293.61973324 388.58052778 289.66871413 389.39950033 284.43359375 389.7734375 C284.32273437 390.28390625 284.211875 390.794375 284.09765625 391.3203125 C270.8079447 440.41407046 234.70625292 482.89211643 191.12109375 508.0234375 C167.2489934 521.42535722 143.19291845 529.48016962 116.43359375 534.7734375 C115.64339844 534.94294922 114.85320312 535.11246094 114.0390625 535.28710938 C96.59547848 538.8170315 78.78342501 539.07109836 61.05761719 539.0480957 C58.7995436 539.05245627 56.54147148 539.05764383 54.28340149 539.06358337 C48.21496117 539.07684022 42.14658363 539.07756706 36.07813168 539.07502007 C30.98202122 539.07394122 25.88592299 539.07885688 20.78981519 539.0836255 C8.06606821 539.09530364 -4.65763392 539.09452212 -17.38138041 539.08806869 C-28.36598643 539.08290457 -39.35050363 539.09415166 -50.3350921 539.11316691 C-61.68460307 539.13265931 -73.03406009 539.14049186 -84.38359237 539.13704365 C-90.72721831 539.13524494 -97.0707629 539.13772401 -103.41437531 539.15175819 C-109.38675581 539.1644798 -115.35896058 539.16225932 -121.33133888 539.14934731 C-123.5010338 539.14701279 -125.67074165 539.14960118 -127.84042168 539.15797043 C-147.92325 539.22974516 -167.9172037 537.58311737 -187.50390625 532.9609375 C-188.621604 532.70449463 -189.73930176 532.44805176 -190.89086914 532.18383789 C-200.33418151 529.95528953 -209.48806257 527.1864413 -218.56640625 523.7734375 C-219.5409375 523.42152344 -220.51546875 523.06960938 -221.51953125 522.70703125 C-238.63180913 516.0821351 -254.87664208 506.71281868 -269.56640625 495.7734375 C-270.38625 495.17273438 -271.20609375 494.57203125 -272.05078125 493.953125 C-285.74866161 483.60472634 -297.90331127 472.22426973 -308.56640625 458.7734375 C-308.97826172 458.25974609 -309.39011719 457.74605469 -309.81445312 457.21679688 C-316.04864891 449.42645361 -321.5824929 441.43979695 -326.56640625 432.7734375 C-327.55253906 431.06607422 -327.55253906 431.06607422 -328.55859375 429.32421875 C-333.44642381 420.62708832 -337.21454603 411.60378834 -340.8046875 402.3046875 C-341.10761719 401.53592285 -341.41054688 400.7671582 -341.72265625 399.97509766 C-342.26275497 398.56577755 -342.77130412 397.14370414 -343.23828125 395.70849609 C-344.43992907 392.28575516 -345.17584215 390.97029865 -348.46484375 389.3125 C-350.18574219 388.86003906 -350.18574219 388.86003906 -351.94140625 388.3984375 C-367.61846866 383.45886722 -379.87356463 372.2065025 -387.56640625 357.7734375 C-393.27570813 345.65239717 -394.72264827 335.45117173 -394.734375 322.16796875 C-394.7377034 320.85237473 -394.7410318 319.5367807 -394.74446106 318.18132019 C-394.7504276 315.40171488 -394.75230363 312.62214055 -394.75170898 309.8425293 C-394.75160775 306.31379126 -394.76523064 302.78525619 -394.78248119 299.25656605 C-394.79370709 296.51186751 -394.79562494 293.7672163 -394.79509926 291.02249718 C-394.7968242 289.09960303 -394.80759947 287.17672365 -394.81864929 285.25386047 C-394.76648248 264.94475031 -389.09907205 248.09825258 -375.37890625 233.0234375 C-367.84972037 226.00203393 -355.39803096 217.0267812 -344.7890625 216.68359375 C-344.05558594 216.71324219 -343.32210937 216.74289062 -342.56640625 216.7734375 C-342.32019531 215.484375 -342.07398438 214.1953125 -341.8203125 212.8671875 C-340.66266549 207.6815771 -338.7383925 203.07774965 -336.50390625 198.2734375 C-336.10469971 197.40541504 -335.70549316 196.53739258 -335.29418945 195.64306641 C-319.20557953 161.03976125 -296.09895531 129.09748787 -265.56640625 105.7734375 C-265.02999512 105.35529785 -264.49358398 104.9371582 -263.94091797 104.50634766 C-244.85434148 89.6732583 -223.19794504 78.18494659 -200.56640625 69.7734375 C-198.92091797 69.14501953 -198.92091797 69.14501953 -197.2421875 68.50390625 C-189.07603617 65.57079602 -180.76737877 63.52001438 -172.31640625 61.5859375 C-171.24680664 61.33585937 -170.17720703 61.08578125 -169.07519531 60.828125 C-149.75962083 56.56521861 -130.5791089 56.51268885 -110.87890625 56.6484375 C-108.31575873 56.65849478 -105.75260737 56.66761574 -103.18945312 56.67578125 C-96.98168513 56.69755975 -90.77406436 56.73081636 -84.56640625 56.7734375 C-84.57687988 56.14463181 -84.58735352 55.51582611 -84.59814453 54.8679657 C-84.64002323 51.98623744 -84.66583284 49.1045735 -84.69140625 46.22265625 C-84.70816406 45.23358276 -84.72492188 44.24450928 -84.7421875 43.22546387 C-84.8427594 28.09882228 -77.87674279 17.32529648 -67.69140625 6.4609375 C-50.32069697 -10.06489293 -20.25388299 -13.28654724 0 0 Z " fill="#000000" transform="translate(541.56640625,151.2265625)"/>
<path d="M0 0 C12.1122195 8.82656124 21.20124308 19.89019738 24.43359375 34.7734375 C24.75852207 38.66173612 24.72257912 42.50035825 24.62109375 46.3984375 C24.60755859 47.40261719 24.59402344 48.40679687 24.58007812 49.44140625 C24.54515527 51.88600614 24.49612123 54.32941484 24.43359375 56.7734375 C25.04064148 56.76899628 25.64768921 56.76455505 26.27313232 56.75997925 C32.6993164 56.71508335 39.12545464 56.68530232 45.55175781 56.66357422 C47.93719294 56.65363223 50.32261627 56.64007394 52.70800781 56.62255859 C72.50233395 56.48105164 91.5677598 57.24524309 110.90014648 61.6953125 C112.89488577 62.15390734 114.89311243 62.59376836 116.89257812 63.03125 C129.50991436 65.83325104 141.65378904 69.43566797 153.43359375 74.7734375 C154.65248291 75.32064453 154.65248291 75.32064453 155.89599609 75.87890625 C178.66421248 86.18045786 198.84006563 98.79518341 217.22265625 115.75 C219.16691312 117.5293729 221.15752077 119.21431776 223.18359375 120.8984375 C248.83110118 143.39171518 269.39075859 175.63978205 280.43359375 207.7734375 C280.80226563 208.62679687 281.1709375 209.48015625 281.55078125 210.359375 C282.43359375 212.7734375 282.43359375 212.7734375 282.43359375 216.7734375 C283.60921875 216.7734375 284.78484375 216.7734375 285.99609375 216.7734375 C299.04364258 218.23459833 312.38788644 228.78255415 320.62109375 238.3984375 C332.74969807 254.3571274 335.5437329 270.95448535 335.671875 290.4375 C335.67994675 291.62838226 335.68801849 292.81926453 335.69633484 294.04623413 C335.71009723 296.55571064 335.72085404 299.06520524 335.72875977 301.57470703 C335.74026732 304.11317525 335.76069941 306.6516195 335.7902832 309.18994141 C336.06128558 332.50220141 334.47872676 352.46144243 318.43359375 370.7734375 C317.90121094 371.38832031 317.36882813 372.00320313 316.8203125 372.63671875 C312.06483445 377.75538367 306.44149344 381.27461731 300.43359375 384.7734375 C299.7065625 385.20011719 298.97953125 385.62679688 298.23046875 386.06640625 C293.61973324 388.58052778 289.66871413 389.39950033 284.43359375 389.7734375 C284.32273437 390.28390625 284.211875 390.794375 284.09765625 391.3203125 C270.8079447 440.41407046 234.70625292 482.89211643 191.12109375 508.0234375 C167.2489934 521.42535722 143.19291845 529.48016962 116.43359375 534.7734375 C115.64339844 534.94294922 114.85320312 535.11246094 114.0390625 535.28710938 C96.59547848 538.8170315 78.78342501 539.07109836 61.05761719 539.0480957 C58.7995436 539.05245627 56.54147148 539.05764383 54.28340149 539.06358337 C48.21496117 539.07684022 42.14658363 539.07756706 36.07813168 539.07502007 C30.98202122 539.07394122 25.88592299 539.07885688 20.78981519 539.0836255 C8.06606821 539.09530364 -4.65763392 539.09452212 -17.38138041 539.08806869 C-28.36598643 539.08290457 -39.35050363 539.09415166 -50.3350921 539.11316691 C-61.68460307 539.13265931 -73.03406009 539.14049186 -84.38359237 539.13704365 C-90.72721831 539.13524494 -97.0707629 539.13772401 -103.41437531 539.15175819 C-109.38675581 539.1644798 -115.35896058 539.16225932 -121.33133888 539.14934731 C-123.5010338 539.14701279 -125.67074165 539.14960118 -127.84042168 539.15797043 C-147.92325 539.22974516 -167.9172037 537.58311737 -187.50390625 532.9609375 C-188.621604 532.70449463 -189.73930176 532.44805176 -190.89086914 532.18383789 C-200.33418151 529.95528953 -209.48806257 527.1864413 -218.56640625 523.7734375 C-219.5409375 523.42152344 -220.51546875 523.06960938 -221.51953125 522.70703125 C-238.63180913 516.0821351 -254.87664208 506.71281868 -269.56640625 495.7734375 C-270.38625 495.17273438 -271.20609375 494.57203125 -272.05078125 493.953125 C-285.74866161 483.60472634 -297.90331127 472.22426973 -308.56640625 458.7734375 C-308.97826172 458.25974609 -309.39011719 457.74605469 -309.81445312 457.21679688 C-316.04864891 449.42645361 -321.5824929 441.43979695 -326.56640625 432.7734375 C-327.55253906 431.06607422 -327.55253906 431.06607422 -328.55859375 429.32421875 C-333.44642381 420.62708832 -337.21454603 411.60378834 -340.8046875 402.3046875 C-341.10761719 401.53592285 -341.41054688 400.7671582 -341.72265625 399.97509766 C-342.26275497 398.56577755 -342.77130412 397.14370414 -343.23828125 395.70849609 C-344.43992907 392.28575516 -345.17584215 390.97029865 -348.46484375 389.3125 C-350.18574219 388.86003906 -350.18574219 388.86003906 -351.94140625 388.3984375 C-367.61846866 383.45886722 -379.87356463 372.2065025 -387.56640625 357.7734375 C-393.27570813 345.65239717 -394.72264827 335.45117173 -394.734375 322.16796875 C-394.7377034 320.85237473 -394.7410318 319.5367807 -394.74446106 318.18132019 C-394.7504276 315.40171488 -394.75230363 312.62214055 -394.75170898 309.8425293 C-394.75160775 306.31379126 -394.76523064 302.78525619 -394.78248119 299.25656605 C-394.79370709 296.51186751 -394.79562494 293.7672163 -394.79509926 291.02249718 C-394.7968242 289.09960303 -394.80759947 287.17672365 -394.81864929 285.25386047 C-394.76648248 264.94475031 -389.09907205 248.09825258 -375.37890625 233.0234375 C-367.84972037 226.00203393 -355.39803096 217.0267812 -344.7890625 216.68359375 C-344.05558594 216.71324219 -343.32210937 216.74289062 -342.56640625 216.7734375 C-342.32019531 215.484375 -342.07398438 214.1953125 -341.8203125 212.8671875 C-340.66266549 207.6815771 -338.7383925 203.07774965 -336.50390625 198.2734375 C-336.10469971 197.40541504 -335.70549316 196.53739258 -335.29418945 195.64306641 C-319.20557953 161.03976125 -296.09895531 129.09748787 -265.56640625 105.7734375 C-265.02999512 105.35529785 -264.49358398 104.9371582 -263.94091797 104.50634766 C-244.85434148 89.6732583 -223.19794504 78.18494659 -200.56640625 69.7734375 C-198.92091797 69.14501953 -198.92091797 69.14501953 -197.2421875 68.50390625 C-189.07603617 65.57079602 -180.76737877 63.52001438 -172.31640625 61.5859375 C-171.24680664 61.33585937 -170.17720703 61.08578125 -169.07519531 60.828125 C-149.75962083 56.56521861 -130.5791089 56.51268885 -110.87890625 56.6484375 C-108.31575873 56.65849478 -105.75260737 56.66761574 -103.18945312 56.67578125 C-96.98168513 56.69755975 -90.77406436 56.73081636 -84.56640625 56.7734375 C-84.57687988 56.14463181 -84.58735352 55.51582611 -84.59814453 54.8679657 C-84.64002323 51.98623744 -84.66583284 49.1045735 -84.69140625 46.22265625 C-84.70816406 45.23358276 -84.72492188 44.24450928 -84.7421875 43.22546387 C-84.8427594 28.09882228 -77.87674279 17.32529648 -67.69140625 6.4609375 C-50.32069697 -10.06489293 -20.25388299 -13.28654724 0 0 Z M-160.56640625 140.7734375 C-161.4093329 140.97070812 -162.25225956 141.16797874 -163.12072945 141.37122726 C-188.42958984 147.71865429 -211.8016481 160.69519489 -230.56640625 178.7734375 C-231.33017578 179.49853516 -231.33017578 179.49853516 -232.109375 180.23828125 C-264.021172 210.63407839 -279.34896502 251.22698737 -280.625 294.77301025 C-280.7510514 300.0645933 -280.79480167 305.355526 -280.81640625 310.6484375 C-280.82176392 311.38007111 -280.82712158 312.11170471 -280.8326416 312.86550903 C-281.02377674 347.24618331 -272.7522083 380.83859796 -250.56640625 407.7734375 C-250.10331055 408.34191406 -249.64021484 408.91039062 -249.16308594 409.49609375 C-224.85215475 439.21480303 -189.55573963 458.43937495 -151.32353592 463.04353809 C-140.89375026 464.0550745 -130.4543269 463.92159059 -119.98730469 463.91870117 C-117.81447797 463.92169751 -115.64165179 463.92510113 -113.46882629 463.92887878 C-107.59468013 463.93767425 -101.72054856 463.94005501 -95.84639645 463.94069457 C-92.16903216 463.94140756 -88.49167154 463.94354657 -84.81430817 463.94619179 C-71.96425645 463.9554302 -59.11421508 463.95952853 -46.26416016 463.95874023 C-34.31952234 463.95813972 -22.37492972 463.96869023 -10.43030334 463.9844839 C-0.14624246 463.99759337 10.1378037 464.00292271 20.42187285 464.00228482 C26.5512665 464.00203086 32.68061993 464.00482599 38.81000519 464.01546288 C44.57865174 464.02520146 50.34722009 464.02518382 56.11586952 464.01794624 C58.22161029 464.01690756 60.32735608 464.01922023 62.4330883 464.0253067 C74.2822229 464.05731226 85.7136499 463.60396657 97.43359375 461.7734375 C98.33261036 461.64123401 99.23162697 461.50903051 100.15788651 461.37282085 C125.79025013 457.51826484 150.70952116 445.44810585 170.43359375 428.7734375 C170.94374023 428.34305176 171.45388672 427.91266602 171.97949219 427.46923828 C194.07608405 408.57434029 210.92020264 382.50746124 216.43359375 353.7734375 C216.57635742 353.03416016 216.71912109 352.29488281 216.86621094 351.53320312 C219.79292559 335.99859636 220.66994599 320.61997869 220.68359375 304.8359375 C220.68460083 304.02217651 220.68560791 303.20841553 220.68664551 302.36999512 C220.67573735 289.29111479 219.96472842 276.6356779 217.43359375 263.7734375 C217.29969238 263.03899414 217.16579102 262.30455078 217.02783203 261.54785156 C209.97929822 223.52848736 185.81630395 187.16092517 154.51879883 164.67504883 C129.47565422 147.6530024 101.137896 137.60152646 70.79684448 137.63299561 C69.88079001 137.63002448 68.96473553 137.62705336 68.02092183 137.6239922 C64.97992144 137.6153853 61.93896078 137.61380381 58.89794922 137.61230469 C56.70571307 137.60767086 54.51347772 137.60264544 52.32124329 137.59725952 C46.38500035 137.58418855 40.4487687 137.57770104 34.51251364 137.57324886 C30.79730295 137.57030975 27.08209529 137.5662034 23.36688614 137.56174469 C11.0560741 137.54730064 -1.25472953 137.53796222 -13.56554927 137.53387818 C-14.55887387 137.53354403 -14.55887387 137.53354403 -15.57226562 137.53320312 C-16.56682014 137.53287098 -16.56682014 137.53287098 -17.58146666 137.53253213 C-27.64711253 137.52883298 -37.71269836 137.51402005 -47.77832031 137.4921875 C-59.49731274 137.46685372 -71.21625796 137.45200711 -82.93527877 137.45050168 C-89.12732432 137.44945731 -95.31927372 137.44362793 -101.51129532 137.42568207 C-107.34067844 137.40911448 -113.169894 137.40708782 -118.99929237 137.41582108 C-121.12761066 137.4165868 -123.2559383 137.41231081 -125.38423347 137.40236282 C-137.49907805 137.34909853 -148.74782524 137.96387982 -160.56640625 140.7734375 Z " fill="#FDFDFD" transform="translate(541.56640625,151.2265625)"/>
<path d="M0 0 C2.14642864 -0.00322417 4.29285707 -0.00658905 6.43928528 -0.01008606 C10.9163158 -0.01603503 15.39332714 -0.01793034 19.87036133 -0.01733398 C25.5468845 -0.01723257 31.22328202 -0.03088273 36.89977551 -0.04810619 C41.32789145 -0.05934062 45.7559781 -0.06124972 50.18410683 -0.06072426 C52.27402491 -0.0618873 54.3639442 -0.06621206 56.45384789 -0.07405663 C66.96456173 -0.10982227 77.38148573 0.07732046 87.8527832 1.04956055 C88.68311915 1.12609014 89.5134551 1.20261972 90.36895275 1.28146839 C117.81249384 4.12091034 143.78061473 18.15397266 161.359375 39.53125 C178.19841473 61.01452977 187.01804358 86.73743807 192.51953125 113.16796875 C192.8136792 114.53695312 192.8136792 114.53695312 193.11376953 115.93359375 C193.70357897 118.69600459 194.27216897 121.461845 194.83203125 124.23046875 C195.00379883 125.05039307 195.17556641 125.87031738 195.35253906 126.71508789 C196.24725287 131.35443116 196.59958848 135.75203076 196.56323242 140.48217773 C196.55692307 141.55056381 196.55061371 142.61894989 196.54411316 143.7197113 C196.53600113 144.52763626 196.5278891 145.33556122 196.51953125 146.16796875 C179.56115016 146.94350315 162.60838503 147.52286986 145.63625908 147.87777042 C137.75238591 148.04705904 129.87970028 148.2778778 122.00292969 148.6574707 C69.33142371 151.14848267 69.33142371 151.14848267 58.4317627 142.82244873 C49.87597404 134.81298211 44.98786397 124.1961347 41.51953125 113.16796875 C42.51953125 111.16796875 42.51953125 111.16796875 44.33984375 110.52734375 C45.10039063 110.32625 45.8609375 110.12515625 46.64453125 109.91796875 C54.63684936 107.35535247 58.71425398 102.60177022 62.57421875 95.31640625 C65.77114513 88.05066447 65.62961716 79.34579032 63.01953125 71.91796875 C58.786266 62.79227931 52.39369304 58.59561673 43.15884399 55.19815063 C37.08503575 53.47883502 31.18412056 53.44091788 24.90625 53.4609375 C23.72019165 53.4463147 22.5341333 53.43169189 21.31213379 53.41662598 C16.94396987 53.36978277 12.57543594 53.36499547 8.20703125 53.35546875 C-1.58984375 53.29359375 -11.38671875 53.23171875 -21.48046875 53.16796875 C-21.48046875 83.85796875 -21.48046875 114.54796875 -21.48046875 146.16796875 C-62.07046875 146.16796875 -102.66046875 146.16796875 -144.48046875 146.16796875 C-144.48046875 138.54387215 -143.91888792 131.76329433 -142.79296875 124.29296875 C-142.61507813 123.10711182 -142.4371875 121.92125488 -142.25390625 120.69946289 C-140.27759545 108.09111107 -137.69382018 95.45879092 -132.55078125 83.71484375 C-131.4502668 81.09610134 -130.54186923 78.4353351 -129.62426758 75.74829102 C-123.83792288 59.21730624 -114.62132304 44.73626002 -102.48046875 32.16796875 C-101.63226563 31.27851562 -100.7840625 30.3890625 -99.91015625 29.47265625 C-85.8378806 15.74465646 -67.64983403 6.84841216 -48.54296875 2.85546875 C-47.78129395 2.69570557 -47.01961914 2.53594238 -46.23486328 2.37133789 C-31.07574314 -0.48461382 -15.35912692 0.00549712 0 0 Z " fill="#FDFDFD" transform="translate(485.48046875,732.83203125)"/>
<path d="M0 0 C1.47300775 1.2115424 2.93172915 2.44068163 4.375 3.6875 C5.05433594 4.25984375 5.73367188 4.8321875 6.43359375 5.421875 C17.04333109 15.10093363 24.01137175 29.73308886 24.71484375 44.0078125 C25.23359251 63.0366804 20.76433689 76.82003566 8.625 91.5625 C-2.47129597 103.1851025 -17.48201614 110.59054406 -33.63085938 111.03149414 C-52.64553092 111.24633963 -66.32606318 106.37404878 -80.4375 93.375 C-93.69156102 79.13182994 -98.3287969 63.05573911 -97.86328125 44.08203125 C-97.24838373 29.89698146 -90.67386097 15.88666155 -80.8046875 5.671875 C-57.66101839 -15.39798864 -25.63855311 -19.15273917 0 0 Z " fill="#028DD0" transform="translate(652.625,408.3125)"/>
<path d="M0 0 C13.56303978 10.32155858 23.08786756 23.3045326 26.10546875 40.36328125 C27.64632715 60.95127477 24.37343573 76.27916631 11.10546875 92.36328125 C1.28028243 103.69051944 -13.03008578 111.30953828 -28.04052734 112.5390625 C-46.56220143 113.62378719 -61.89928611 109.26523638 -76.20703125 97.05078125 C-88.80663629 85.11750148 -95.70521382 69.26207038 -96.24853516 51.95092773 C-96.40528205 35.43235691 -90.72686789 20.47699573 -79.140625 8.5390625 C-78.39941406 7.82105469 -77.65820312 7.10304688 -76.89453125 6.36328125 C-76.24613281 5.71746094 -75.59773438 5.07164062 -74.9296875 4.40625 C-53.97336825 -15.26440549 -23.2248676 -15.31975739 0 0 Z " fill="#028DD0" transform="translate(441.89453125,406.63671875)"/>
<path d="M0 0 C0.99 0 1.98 0 3 0 C3 0.66 3 1.32 3 2 C3.66 2 4.32 2 5 2 C6.68816933 3.64488294 8.35353315 5.31337542 10 7 C10.99 7.66 11.98 8.32 13 9 C13 9.66 13 10.32 13 11 C13.99 11 14.98 11 16 11 C16 11.66 16 12.32 16 13 C16.763125 13.12375 17.52625 13.2475 18.3125 13.375 C21 14 21 14 24 16 C26.31543043 16.72640955 28.65269935 17.38431458 31 18 C32.7015625 18.556875 32.7015625 18.556875 34.4375 19.125 C43.98628612 21.44717561 54.55361648 20.77707499 63.765625 17.55859375 C66.2497096 16.9375726 67.60786822 17.17153234 70 18 C55.43504588 24.05296794 38.4321025 24.32866904 23.66015625 18.68359375 C14.70115764 14.80808521 6.18566368 8.55775635 0 1 C0 0.67 0 0.34 0 0 Z " fill="#125B91" transform="translate(569,497)"/>
<path d="M0 0 C0.66 0 1.32 0 2 0 C2 0.66 2 1.32 2 2 C2.66 2 3.32 2 4 2 C4 2.66 4 3.32 4 4 C4.66 4 5.32 4 6 4 C6 4.66 6 5.32 6 6 C6.639375 6.12375 7.27875 6.2475 7.9375 6.375 C8.618125 6.58125 9.29875 6.7875 10 7 C10.33 7.66 10.66 8.32 11 9 C11.99 9.33 12.98 9.66 14 10 C14 10.66 14 11.32 14 12 C15.3303125 12.4021875 15.3303125 12.4021875 16.6875 12.8125 C19.79058497 13.92492669 22.18902071 15.31341242 25 17 C27.80376352 18.12949221 27.80376352 18.12949221 31 19 C31.61230469 19.18691406 32.22460938 19.37382813 32.85546875 19.56640625 C42.91650917 22.26570978 53.78102855 21.43424161 64 20 C55.887286 25.408476 42.31325382 23.87500013 33.0625 22.3515625 C20.57919502 19.09141366 9.76721576 12.48403214 1 3 C0.67 2.01 0.34 1.02 0 0 Z " fill="#126196" transform="translate(360,496)"/>
<path d="M0 0 C0.99 0 1.98 0 3 0 C3 0.66 3 1.32 3 2 C3.66 2 4.32 2 5 2 C6.68816933 3.64488294 8.35353315 5.31337542 10 7 C10.99 7.66 11.98 8.32 13 9 C13 9.66 13 10.32 13 11 C13.99 11 14.98 11 16 11 C16 11.66 16 12.32 16 13 C18.475 13.495 18.475 13.495 21 14 C19.3359375 14.71875 19.3359375 14.71875 17 15 C10.18647581 11.29476026 4.70127774 6.09895491 0 0 Z " fill="#1169A0" transform="translate(569,497)"/>
<path d="M0 0 C0.33 0.66 0.66 1.32 1 2 C0.34 2 -0.32 2 -1 2 C-1.33 2.99 -1.66 3.98 -2 5 C-3.671875 6.68359375 -3.671875 6.68359375 -5.75 8.4375 C-6.46671875 9.0459375 -7.1834375 9.654375 -7.921875 10.28125 C-10.26014318 12.21515601 -12.60876067 14.13184428 -15 16 C-14.08145311 10.03610135 -8.74659099 6.07289886 -4.13671875 2.59375 C-2.78351807 1.68946315 -1.39560412 0.83736247 0 0 Z " fill="#0EA1D5" transform="translate(375,405)"/>
<path d="M0 0 C7.69050296 -0.35677591 14.87746106 -0.25516455 22 3 C22.33 3.66 22.66 4.32 23 5 C15.28728953 3.86364454 7.62717033 2.61840635 0 1 C0 0.67 0 0.34 0 0 Z " fill="#11ACDF" transform="translate(616,397)"/>
<path d="M0 0 C-1.62249941 0.83819158 -3.24808497 1.6704116 -4.875 2.5 C-6.23238281 3.19609375 -6.23238281 3.19609375 -7.6171875 3.90625 C-10 5 -10 5 -12 5 C-12 4.34 -12 3.68 -12 3 C-10.75823305 2.29773859 -9.50614401 1.61370891 -8.25 0.9375 C-7.20585938 0.36322266 -7.20585938 0.36322266 -6.140625 -0.22265625 C-3.63859372 -1.1312406 -2.4667645 -0.88336837 0 0 Z " fill="#0FA4D3" transform="translate(597,401)"/>
<path d="M0 0 C6.27 0 12.54 0 19 0 C19.33 0.99 19.66 1.98 20 3 C19.01 2.67 18.02 2.34 17 2 C15.66636297 1.85596652 14.32781954 1.75409577 12.98828125 1.68359375 C11.85229492 1.62075195 11.85229492 1.62075195 10.69335938 1.55664062 C9.51483398 1.49766602 9.51483398 1.49766602 8.3125 1.4375 C7.51521484 1.39431641 6.71792969 1.35113281 5.89648438 1.30664062 C3.93118553 1.20072632 1.96561504 1.09987449 0 1 C0 0.67 0 0.34 0 0 Z " fill="#12B4E8" transform="translate(400,397)"/>
<path d="M0 0 C0.66 0 1.32 0 2 0 C1.45773019 3.79588866 -0.20127563 5.47211993 -3 8 C-3.66 7.67 -4.32 7.34 -5 7 C-3.47793991 4.37098712 -2.15634036 2.15634036 0 0 Z " fill="#07A3DA" transform="translate(572,415)"/>
</svg>
